<?xml version="1.0" standalone="no"?>
<!DOCTYPE svg PUBLIC "-//W3C//DTD SVG 20010904//EN"
        "http://www.w3.org/TR/2001/REC-SVG-20010904/DTD/svg10.dtd">
<svg version="1.0" xmlns="http://www.w3.org/2000/svg"
     width="595.000000pt" height="595.000000pt" viewBox="0 0 595.000000 595.000000"
     preserveAspectRatio="xMidYMid meet">
    <metadata>
        Created by potrace 1.11, written by Peter Selinger 2001-2013
    </metadata>
    <g transform="translate(0.000000,595.000000) scale(0.100000,-0.100000)"
       fill="#000000" stroke="none">
        <path d="M4578 4625 c-2 -1 -31 -6 -65 -9 -35 -4 -68 -8 -75 -11 -7 -2 -31 -7
-53 -10 -197 -29 -492 -155 -725 -309 -533 -355 -860 -871 -934 -1476 -14
-108 -14 -296 -2 -385 31 -214 120 -426 251 -595 52 -66 153 -170 203 -208 21
-15 39 -29 42 -32 16 -18 147 -92 215 -122 321 -141 714 -161 1105 -56 239 64
553 228 743 388 5 4 -33 76 -84 161 -50 85 -99 166 -108 181 -87 148 -148 249
-168 281 l-24 38 -47 -41 c-297 -262 -726 -319 -1004 -134 -120 80 -198 186
-249 339 -20 58 -24 90 -24 190 0 159 15 228 85 382 111 245 351 456 625 550
100 34 156 44 272 48 219 7 399 -65 525 -212 l36 -42 65 67 c36 37 91 94 122
127 32 33 144 149 249 259 105 109 192 204 194 212 4 17 -77 97 -165 165 -167
128 -365 209 -588 243 -76 11 -407 20 -417 11z"/>
        <path d="M353 4524 c-4 -10 10 -63 124 -484 25 -90 47 -172 48 -182 2 -11 9
-33 15 -51 13 -42 140 -514 146 -547 2 -14 9 -36 14 -50 5 -14 36 -128 69
-255 33 -126 65 -243 70 -260 6 -16 17 -57 25 -90 8 -33 33 -127 56 -210 44
-162 108 -401 114 -425 2 -8 23 -83 45 -167 23 -84 44 -160 46 -170 24 -106
80 -292 86 -286 4 4 159 229 345 498 185 270 360 524 389 565 28 41 132 192
230 335 98 143 193 280 210 305 17 25 62 90 100 145 130 190 478 696 534 775
17 25 74 108 127 185 52 77 131 191 175 254 43 63 75 117 70 120 -5 3 -219 6
-476 5 l-466 -1 -92 -144 c-51 -79 -142 -220 -202 -314 -60 -93 -127 -199
-150 -235 -23 -36 -75 -117 -115 -180 -40 -63 -93 -146 -118 -185 -24 -38 -64
-99 -87 -135 -24 -36 -48 -76 -55 -88 -13 -26 -19 -25 -25 4 -2 11 -20 96 -40
189 -20 94 -54 253 -76 355 -21 102 -48 228 -59 280 -12 52 -25 113 -30 135
-21 93 -52 239 -57 268 -2 18 -9 36 -13 41 -14 14 -971 14 -977 0z"/>
    </g>
</svg>
